<mxfile host="app.diagrams.net" modified="2023-07-04T08:52:50.344Z" agent="Mozilla/5.0 (Windows NT 10.0; Win64; x64; rv:109.0) Gecko/20100101 Firefox/114.0" version="21.5.2" etag="5_uOiTEOiQHSr4X9RnZ3" type="github">
  <diagram name="第 1 页" id="OCMJomf8y8Lbph2XfeiR">
    <mxGraphModel>
      <root>
        <mxCell id="0" />
        <mxCell id="1" parent="0" />
      </root>
    </mxGraphModel>
  </diagram>
</mxfile>
